<svg width="490" height="490" viewBox="0 0 490 490" fill="none" xmlns="http://www.w3.org/2000/svg">
<path fill-rule="evenodd" clip-rule="evenodd" d="M265.943 489.906L243.144 471.667L243.144 434.895L217.109 460.93L188.132 457.547L184.749 428.57L210.784 402.535L174.012 402.535L155.773 379.736L173.57 357.525L145.329 360.614L119.441 334.726L119.441 371.352L96.4953 389.591L73.6964 371.352L73.6964 334.726L47.6615 360.614L18.6847 357.378L15.3017 328.255L41.3366 302.367L4.56407 302.367L-13.6751 279.421L4.56408 256.622L41.3366 256.622L15.3017 230.734L18.5376 202.346L-3.82005 219.996L-26.619 201.904L-26.619 165.132L-52.6539 191.167L-81.6306 187.784L-85.0137 158.66L-58.9788 132.772L-95.7513 132.772L-113.843 109.973L-95.7513 87.027L-58.9788 87.027L-85.0137 61.1392L-81.6306 32.0154L-52.6539 28.7794L-26.619 54.6673L-26.619 18.0419L-3.82004 -0.197282L19.126 18.0419L19.126 54.6673L45.0138 28.7794L74.1376 32.0154L77.3736 61.1392L51.4858 87.027L88.1112 87.027L104.291 107.325L169.158 129.389L174.6 201.757L237.26 213.23L268.443 271.478L288.889 287.805L288.889 324.43L314.777 298.542L343.901 301.778L347.137 330.902L321.249 356.79L357.874 356.79L376.113 379.736L357.874 402.535L321.249 402.535L347.137 428.57L343.901 457.547L314.777 460.93L288.889 434.895L288.889 471.667L265.943 489.906ZM338.017 428.129L315.659 405.771C314.63 409.742 313.6 416.95 317.719 423.128C321.543 428.717 331.545 428.864 338.017 428.129ZM333.163 385.767C326.103 387.091 321.543 392.827 319.484 396.504L351.108 396.504C347.137 391.356 339.929 384.443 333.163 385.767ZM331.986 379.736C321.396 377.677 315.512 368.851 313.306 364.586L298.303 379.736L313.306 394.739C315.512 390.474 321.396 381.795 331.986 379.736ZM319.484 362.968C321.543 366.645 326.103 372.382 333.163 373.705C339.929 375.029 347.137 368.116 351.108 362.968L319.484 362.968ZM317.866 336.345C313.747 342.375 314.63 349.583 315.659 353.701L338.017 331.343C331.545 330.608 321.69 330.755 317.866 336.345ZM291.978 330.02C295.949 331.049 303.157 332.079 309.334 327.813C314.924 323.989 315.071 314.134 314.335 307.662L291.978 330.02ZM49.8678 93.2048C51.9271 96.735 56.3397 102.471 63.5472 103.942C70.3133 105.119 77.3736 98.2059 81.4921 93.2048L49.8678 93.2048ZM48.1027 66.5816C43.9842 72.6122 45.0138 79.8196 46.0435 83.7911L68.4011 61.4334C61.9292 60.698 52.0742 60.845 48.1027 66.5816ZM22.362 60.2567C26.3334 61.2863 33.5408 62.1689 39.5715 58.0503C45.308 54.226 45.4551 44.2239 44.7197 37.7519L22.362 60.2567ZM-52.0655 37.899C-52.801 44.371 -52.6539 54.226 -47.0645 58.1974C-41.0338 62.3159 -33.6793 61.2863 -29.7078 60.2567L-52.0655 37.899ZM-75.747 61.5805L-53.3893 83.9382C-52.3597 79.9667 -51.3301 72.7593 -55.4486 66.7286C-59.42 60.9921 -69.2751 60.845 -75.747 61.5805ZM-70.893 103.942C-63.8327 102.619 -59.2729 96.8821 -57.2137 93.3519L-88.838 93.3519C-84.8666 98.353 -77.6592 105.266 -70.893 103.942ZM-69.7163 109.973C-59.1259 112.032 -53.2422 120.858 -51.0359 125.123L-36.0328 109.973L-51.0359 94.9699C-53.2422 99.2355 -59.1259 108.061 -69.7163 109.973ZM-57.2137 126.741C-59.2729 123.211 -63.8327 117.328 -70.893 116.004C-77.6592 114.827 -84.8666 121.593 -88.838 126.741L-57.2137 126.741ZM-55.5957 153.365C-51.4772 147.334 -52.3597 140.127 -53.3893 136.008L-75.747 158.513C-69.2751 159.248 -59.42 158.954 -55.5957 153.365ZM-29.7078 159.689C-33.6793 158.66 -40.8867 157.777 -47.0645 161.896C-52.6539 165.72 -52.801 175.575 -52.0655 182.047L-29.7078 159.689ZM24.5683 231.175L46.926 253.68C47.9556 249.561 48.8382 242.354 44.7197 236.323C40.8953 230.734 31.0403 230.44 24.5683 231.175ZM29.2752 273.684C36.4826 272.213 40.8953 266.477 42.9546 262.947L11.3302 262.947C15.4487 267.948 22.5091 274.861 29.2752 273.684ZM30.4519 279.715C41.1895 281.627 46.926 290.452 49.1323 294.718L64.2826 279.715L49.1323 264.565C46.926 268.83 41.0424 277.656 30.4519 279.715ZM42.9546 296.336C40.8953 292.806 36.4826 287.069 29.2752 285.598C22.5091 284.422 15.4487 291.335 11.3302 296.336L42.9546 296.336ZM44.7197 322.959C48.8382 316.929 47.8085 309.721 46.7789 305.75L24.4212 328.107C30.8932 328.843 40.8953 328.696 44.7197 322.959ZM70.4604 329.284C66.4889 328.255 59.2815 327.372 53.2509 331.491C47.5144 335.315 47.3673 345.317 48.1027 351.789L70.4604 329.284ZM144.888 351.642C145.623 345.17 145.476 335.315 139.887 331.343C133.856 327.225 126.649 328.255 122.53 329.284L144.888 351.642ZM198.576 373.705C205.783 372.382 210.196 366.645 212.402 362.968L180.631 362.968C184.749 368.116 191.81 375.029 198.576 373.705ZM199.9 379.736C210.49 381.795 216.227 390.474 218.433 394.739L233.583 379.736L218.433 364.586C216.227 368.851 210.49 377.677 199.9 379.736ZM212.402 396.504C210.196 392.827 205.783 387.091 198.576 385.767C191.81 384.443 184.749 391.356 180.631 396.504L212.402 396.504ZM214.167 423.128C218.286 417.097 217.403 409.742 216.374 405.771L193.869 428.129C200.341 428.864 210.343 428.717 214.167 423.128ZM240.055 429.452C235.937 428.423 228.729 427.393 222.698 431.512C217.109 435.483 216.815 445.338 217.55 451.81L240.055 429.452ZM312.865 426.511C306.834 417.538 308.893 407.242 310.364 402.682L289.036 402.682L289.036 424.01C293.596 422.539 303.892 420.48 312.865 426.511ZM282.858 402.682L275.651 402.682L270.503 407.83L282.858 420.186L282.858 402.682ZM282.858 372.823L273.003 362.968L259.177 362.968L249.322 372.823L249.322 386.649L259.177 396.504L273.003 396.504L282.858 386.649L282.858 372.823ZM289.036 380.619L289.771 379.736L289.036 379.001L289.036 380.619ZM168.864 231.175C162.244 230.44 152.389 230.734 148.565 236.323C144.447 242.354 145.329 249.561 146.359 253.68L168.864 231.175ZM85.4636 132.772L51.78 132.772L77.6678 158.807L74.4318 187.195L96.7895 169.397L119.736 187.637L119.736 224.262L142.534 201.316L85.4636 132.772ZM131.503 178.37L160.774 136.596L109.145 151.6L131.503 178.37ZM62.6646 109.973C52.0742 107.914 46.3376 99.2355 44.1313 94.9699L28.981 109.973L44.1313 125.123C46.3376 120.858 52.0742 112.032 62.6646 109.973ZM-12.7925 87.1741L-7.64435 82.026L-20.147 69.6704L-20.147 87.1741L-12.7925 87.1741ZM3.68154 93.3519L-10.1449 93.3519L-19.9999 103.06L-19.9999 116.886L-10.1449 126.741L3.68154 126.741L13.5366 116.886L13.5366 103.06L3.68154 93.3519ZM-4.1142 87.1741L-2.49622 87.1741L-3.37876 86.4387L-4.1142 87.1741ZM1.03393 82.026L6.18209 87.1741L13.5366 87.1741L13.5366 69.6704L1.03393 82.026ZM11.6244 62.6101C7.35882 60.4038 -1.31949 54.5202 -3.37876 43.9297C-5.43802 54.5202 -14.2634 60.4038 -18.3819 62.6101L-3.37876 77.6133L11.6244 62.6101ZM12.2128 93.3519L13.2424 94.5286L13.2424 93.3519L12.2128 93.3519ZM-20.147 93.3519L-20.147 94.5286L-18.9703 93.3519L-20.147 93.3519ZM-26.3248 109.385L-27.0602 110.12L-26.3248 110.856L-26.3248 109.385ZM80.1683 286.628L89.8762 296.483L103.85 296.483L113.558 286.628L113.558 272.802L103.85 263.094L89.8762 263.094L80.1683 272.802L80.1683 286.628ZM73.9905 278.979L73.2551 279.715L73.9905 280.45L73.9905 278.979ZM169.011 328.255L146.506 305.897C145.476 309.868 144.594 317.076 148.712 323.106C152.537 328.843 162.539 328.99 169.011 328.255ZM164.157 285.893C156.949 287.216 152.537 292.953 150.477 296.483L182.102 296.483C177.983 291.482 170.923 284.569 164.157 285.893ZM162.98 279.862C152.389 277.803 146.506 268.977 144.3 264.712L129.149 279.862L144.3 294.865C146.506 290.6 152.389 281.921 162.98 279.862ZM150.33 263.094C152.537 266.624 156.949 272.507 164.157 273.831C170.923 275.008 177.983 268.242 182.102 263.094L150.33 263.094ZM96.7895 207.935C98.4075 199.257 106.497 192.049 110.91 188.813L96.7895 177.487L82.5218 188.813C86.9344 192.049 95.1715 199.257 96.7895 207.935ZM106.203 256.916L113.558 256.916L113.558 239.412L101.055 251.768L106.203 256.916ZM96.7895 256.18L96.054 256.916L97.5249 256.916L96.7895 256.18ZM112.381 263.094L113.558 264.27L113.558 263.094L112.381 263.094ZM111.793 232.499C107.527 230.146 98.8487 224.409 96.7895 213.819C94.7302 224.409 85.9048 230.146 81.6392 232.499L96.7895 247.502L111.793 232.499ZM102.673 212.642C103.997 219.849 109.88 224.262 113.411 226.321L113.411 194.697C108.263 198.815 101.496 205.876 102.673 212.642ZM119.588 235.735L119.588 257.063L140.916 257.063C139.446 252.503 137.386 242.207 143.417 233.234C134.444 239.265 124.148 237.206 119.588 235.735ZM119.588 263.241L119.588 270.448L124.737 275.596L137.092 263.241L119.588 263.241ZM119.588 279.127L119.588 280.744L120.324 280.009L119.588 279.127ZM124.737 284.128L119.588 289.276L119.588 296.63L137.092 296.63L124.737 284.128ZM113.558 295.306L112.381 296.483L113.558 296.483L113.558 295.306ZM140.916 302.514L119.588 302.514L119.588 323.842C124.295 322.371 134.592 320.312 143.417 326.342C137.386 317.37 139.593 307.074 140.916 302.514ZM106.203 302.514L101.055 307.662L113.558 320.018L113.558 302.514L106.203 302.514ZM97.3779 302.514L95.9069 302.514L96.6424 303.249L97.3779 302.514ZM92.2297 307.662L87.0816 302.514L79.8741 302.514L79.8741 320.018L92.2297 307.662ZM81.4921 327.078C85.7577 329.431 94.5831 335.168 96.6424 345.758C98.5546 335.168 107.38 329.431 111.646 327.078L96.6424 312.075L81.4921 327.078ZM80.9038 296.336L79.727 295.306L79.727 296.336L80.9038 296.336ZM80.9038 262.947L79.8741 262.947L79.8741 263.976L80.9038 262.947ZM87.0816 256.769L92.0826 251.768L79.727 239.265L79.727 256.769L87.0816 256.769ZM73.6964 235.588C69.1366 236.912 58.8403 239.118 49.8678 232.94C52.9567 237.647 53.9863 242.501 53.9863 246.914C53.9863 251.032 53.1038 254.562 52.3683 256.769L73.6964 256.769L73.6964 235.588ZM90.6117 212.495C91.7884 205.876 85.0223 198.668 79.8741 194.55L79.8741 226.321C83.4043 224.115 89.2879 219.702 90.6117 212.495ZM5.74081 133.213L0.592676 138.214L13.0953 150.717L13.0953 133.213L5.74081 133.213ZM12.9482 127.036L12.9482 125.859L11.7715 127.036L12.9482 127.036ZM-2.93751 133.213L-4.55549 133.213L-3.67295 133.949L-2.93751 133.213ZM19.126 154.541C23.6858 153.07 33.9821 151.011 42.9546 157.042C36.9239 148.069 38.9831 137.773 40.454 133.213L19.126 133.213L19.126 154.541ZM48.1027 153.659C51.9271 159.248 61.7821 159.542 68.4011 158.807L45.8964 136.302C44.8668 140.421 43.9842 147.628 48.1027 153.659ZM47.0731 161.16C50.309 165.867 51.1916 171.898 51.1916 177.046C51.1916 179.988 50.8974 182.783 50.6032 184.695L68.5482 182.636L70.6075 164.691C65.1651 165.426 54.4276 166.161 47.0731 161.16ZM39.5715 162.19C33.5408 158.071 26.3334 158.954 22.2149 159.984L44.7197 182.488C45.4551 176.016 45.1609 166.014 39.5715 162.19ZM-3.82004 142.627L-18.8232 157.777C-14.5576 159.984 -5.73222 165.867 -3.82005 176.458C-1.76078 165.867 7.06463 159.984 11.3302 157.777L-3.82004 142.627ZM-8.23276 138.214L-13.3809 133.066L-20.5883 133.066L-20.5883 150.717L-8.23276 138.214ZM-19.5587 126.888L-20.5883 125.712L-20.5883 126.888L-19.5587 126.888ZM18.9789 110.856L19.7144 110.12L18.9789 109.385L18.9789 110.856ZM18.9789 119.534L18.9789 126.741L36.4826 126.741L24.1271 114.386L18.9789 119.534ZM63.4001 116.151C56.1927 117.475 51.78 123.211 49.5736 126.741L81.198 126.741C77.2265 121.74 70.0191 114.827 63.4001 116.151ZM122.383 229.998C126.355 231.028 133.562 231.911 139.74 227.792C145.329 223.968 145.476 213.966 144.741 207.494L122.383 229.998ZM151.654 256.916L188.279 256.916L206.519 279.715L188.868 301.925L216.962 298.837L242.85 324.724L242.85 290.894L174.6 233.97L151.654 256.916ZM242.85 370.469L242.85 363.262L225.346 363.262L237.702 375.618L242.85 370.469ZM242.114 380.03L242.85 380.766L242.85 379.148L242.114 380.03ZM261.53 352.083L249.028 339.728L249.028 357.231L256.382 357.231L261.53 352.083ZM265.06 357.231L266.678 357.231L265.796 356.349L265.06 357.231ZM219.168 333.403C222.257 338.11 223.287 342.964 223.287 347.376C223.287 351.495 222.404 355.025 221.669 357.231L242.997 357.231L242.997 336.05C238.437 337.374 228.141 339.58 219.168 333.403ZM249.175 363.409L249.175 364.586L250.204 363.409L249.175 363.409ZM214.167 336.786C210.196 331.196 200.341 331.049 193.869 331.785L216.227 354.142C217.256 350.171 218.286 342.964 214.167 336.786ZM215.05 329.284C210.049 322.077 210.784 311.192 211.667 305.75L193.575 307.809L191.515 325.901C196.958 325.019 207.842 324.283 215.05 329.284ZM222.551 328.255C228.582 332.373 235.937 331.491 239.908 330.461L217.55 308.103C216.815 314.575 216.962 324.43 222.551 328.255ZM265.943 347.818L280.946 332.814C276.828 330.461 268.002 324.724 265.943 314.134C263.884 324.724 255.205 330.461 250.94 332.814L265.943 347.818ZM270.209 352.083L275.357 357.231L282.564 357.231L282.564 339.728L270.209 352.083ZM281.534 363.409L282.711 364.439L282.711 363.409L281.534 363.409ZM256.382 402.976L249.175 402.976L249.175 420.48L261.53 408.124L256.382 402.976ZM265.796 403.712L266.531 402.976L265.06 402.976L265.796 403.712ZM250.204 396.798L249.028 395.622L249.028 396.798L250.204 396.798ZM281.534 396.798L282.564 396.798L282.564 395.622L281.534 396.798ZM250.793 427.54C255.058 429.747 263.884 435.63 265.943 446.221C268.002 435.63 276.68 429.747 280.946 427.54L265.943 412.537L250.793 427.54ZM259.765 447.397C258.441 440.19 252.705 435.777 249.175 433.571L249.175 465.195C254.176 461.224 261.089 454.016 259.765 447.397ZM242.997 402.976L221.669 402.976C222.404 405.183 223.14 408.713 223.14 412.831C223.14 417.244 222.257 422.098 219.168 426.805C227.994 420.774 238.29 422.833 242.997 424.304L242.997 402.976ZM242.997 396.798L242.997 389.444L237.849 384.296L225.493 396.798L242.997 396.798ZM184.602 331.196L187.838 302.661L151.654 302.661L177.542 328.549L174.306 357.084L210.637 357.084L184.602 331.196ZM170.629 334.138C165.333 335.021 154.449 335.756 147.241 330.755C150.33 335.315 151.213 341.346 151.213 346.641C151.213 349.583 150.919 352.23 150.624 354.289L168.569 352.23L170.629 334.138ZM102.379 347.082C101.055 353.848 107.968 360.909 113.116 365.027L113.116 333.256C109.439 335.462 103.703 339.875 102.379 347.082ZM90.3175 347.082C88.9937 339.875 83.1101 335.462 79.5799 333.256L79.5799 365.027C84.7281 360.909 91.6413 353.848 90.3175 347.082ZM73.4022 302.661L52.0741 302.661C52.8096 304.867 53.6921 308.397 53.6921 312.516C53.6921 316.929 52.6625 321.93 49.5736 326.489C58.5461 320.459 68.8424 322.518 73.4022 323.989L73.4022 302.661ZM73.4022 296.483L73.4022 289.276L68.254 284.128L55.8985 296.483L73.4022 296.483ZM68.254 275.449L73.4022 270.301L73.4022 262.947L55.8985 262.947L68.254 275.449ZM70.3133 230.146L47.8085 207.788C47.0731 214.26 47.2202 224.115 52.9567 227.939C58.9874 232.058 66.1948 231.175 70.3133 230.146ZM73.4022 224.556L73.4022 188.225L44.8667 191.461L18.8318 165.573L18.8318 201.904L47.5143 198.668L73.4022 224.556ZM12.654 163.808C9.12386 165.867 3.24029 170.427 1.91647 177.487C0.739738 184.253 7.50588 191.461 12.654 195.432L12.654 163.808ZM-10.1449 177.634C-11.4687 170.427 -17.2052 166.014 -20.7354 163.808L-20.7354 195.432C-15.7344 191.461 -8.82108 184.253 -10.1449 177.634ZM-26.9132 133.213L-48.2412 133.213C-47.5057 135.42 -46.7703 138.95 -46.7703 143.068C-46.7703 147.481 -47.6528 152.335 -50.7417 157.042C-41.9163 150.864 -31.4729 153.07 -26.9132 154.394L-26.9132 133.213ZM-26.9132 127.183L-26.9132 119.828L-32.0613 114.68L-44.4168 127.183L-26.9132 127.183ZM-32.0613 106.002L-26.9132 100.853L-26.9132 93.6461L-44.4168 93.6461L-32.0613 106.002ZM-26.9132 87.4683L-26.9131 66.1403C-31.62 67.6112 -41.9163 69.6704 -50.7417 63.6397C-47.6528 68.1995 -46.7703 73.2006 -46.7703 77.6133C-46.7703 81.7318 -47.6528 85.262 -48.2412 87.4683L-26.9132 87.4683ZM-10.1449 43.0472C-8.82108 36.281 -15.7343 29.2207 -20.7354 25.1022L-20.7354 56.8736C-17.2052 54.6673 -11.4687 50.2546 -10.1449 43.0472ZM1.91647 43.0472C3.24029 50.2546 9.12387 54.6673 12.6541 56.8736L12.6541 25.1022C7.50589 29.2207 0.739744 36.281 1.91647 43.0472ZM18.8318 87.4683L40.1598 87.4683C38.689 82.9085 36.6297 72.6122 42.6604 63.6398C33.6879 69.6704 23.3916 67.6112 18.8318 66.1403L18.8318 87.4683ZM18.8318 93.6461L18.8318 100.854L23.9799 106.002L36.3355 93.6461L18.8318 93.6461ZM67.8128 110.414C76.4911 112.032 83.6985 120.122 86.9344 124.535L98.2604 110.414L86.9344 96.1466C83.6985 100.559 76.4911 108.796 67.8128 110.414ZM90.3175 130.124L104.291 146.893L155.773 131.889L103.261 113.945L90.3175 130.124ZM134.886 183.665L147.683 199.11L167.981 201.463L163.568 142.774L134.886 183.665ZM150.477 205.582C150.771 207.494 151.066 210.141 151.066 213.23C151.066 218.378 150.33 224.409 147.094 228.969C154.302 224.115 165.186 224.85 170.629 225.586L168.569 207.641L150.477 205.582ZM167.981 279.862C176.659 281.48 183.867 289.717 187.103 294.13L198.429 279.862L187.103 265.741C183.867 270.154 176.659 278.244 167.981 279.862ZM222.551 266.33L231.23 222.644L197.693 245.59L222.551 266.33ZM227.847 270.742L245.792 285.746L261.53 273.096L236.672 226.468L227.847 270.742ZM248.733 326.489C252.411 324.283 258.147 319.87 259.471 312.663C260.795 305.897 253.882 298.837 248.733 294.718L248.733 326.489ZM271.532 312.81C272.856 320.018 278.74 324.43 282.27 326.489L282.27 294.865C277.122 298.984 270.356 306.044 271.532 312.81ZM288.448 357.231L309.776 357.231C308.305 352.671 306.246 342.375 312.276 333.403C303.304 339.433 293.007 337.374 288.448 335.903L288.448 357.231ZM288.448 363.409L288.448 370.616L293.596 375.765L305.951 363.409L288.448 363.409ZM293.596 384.443L288.448 389.591L288.448 396.798L305.951 396.798L293.596 384.443ZM291.537 429.894L314.041 452.251C314.777 445.779 314.483 435.924 308.893 431.953C302.862 427.834 295.655 428.864 291.537 429.894ZM271.532 447.397C270.356 454.164 277.122 461.371 282.27 465.342L282.27 433.718C278.74 435.777 272.856 440.337 271.532 447.397ZM279.769 471.079C275.357 467.843 267.12 460.783 265.502 452.104C264.031 460.783 255.794 467.843 251.381 471.079L265.502 482.405L279.769 471.079ZM211.373 454.458C210.49 449.015 209.755 438.131 214.756 430.923C207.548 435.924 196.664 435.189 191.221 434.453L193.28 452.398L211.373 454.458ZM174.747 394.298C177.983 389.885 185.191 381.648 193.869 380.177C185.191 378.559 177.983 370.322 174.747 365.91L163.421 380.177L174.747 394.298ZM110.616 370.911C106.203 367.528 97.9662 360.467 96.3482 351.789C94.7302 360.467 86.6403 367.528 82.2276 370.911L96.3482 382.089L110.616 370.911ZM42.072 354.289C41.3366 348.847 40.6011 338.11 45.6022 330.755C38.3948 335.756 27.5101 335.021 22.0678 334.285L24.1271 352.23L42.072 354.289ZM5.44664 294.13C8.6826 289.717 15.89 281.627 24.4212 280.009C15.89 278.391 8.68261 270.154 5.44664 265.741L-5.87932 280.009L5.44664 294.13ZM22.0678 225.586C27.5101 224.85 38.3948 224.115 45.6022 229.116C40.6011 221.761 41.3366 210.877 42.072 205.582L24.1271 207.641L22.0678 225.586ZM10.3006 201.316C5.8879 198.08 -2.20207 190.873 -3.82005 182.194C-5.43806 190.873 -13.6751 198.08 -18.0877 201.316L-3.82005 212.495L10.3006 201.316ZM-58.2433 184.695C-58.9788 179.4 -59.7142 168.515 -54.7131 161.307C-62.0676 166.161 -72.8052 165.426 -78.2475 164.691L-76.1883 182.636L-58.2433 184.695ZM-95.0158 124.535C-91.6328 120.122 -84.5724 112.032 -75.8941 110.414C-84.5724 108.796 -91.6328 100.559 -95.0158 96.2937L-106.195 110.414L-95.0158 124.535ZM-78.3946 55.9911C-72.9523 55.2556 -62.2147 54.5202 -54.8602 59.5212C-59.8613 52.1667 -59.1258 41.4292 -58.3904 35.9868L-76.3354 38.0461L-78.3946 55.9911ZM-18.2348 19.2186C-13.8221 22.6017 -5.73218 29.662 -4.1142 38.3403C-2.49622 29.662 5.74081 22.6017 10.1535 19.2186L-4.1142 8.03975L-18.2348 19.2186ZM50.3091 35.8398C50.6033 37.7519 50.8974 40.3995 50.8974 43.4884C50.8974 48.6366 50.0149 54.6673 46.926 59.3741C54.1334 54.3731 65.0181 55.1085 70.3133 55.844L68.2541 37.899L50.3091 35.8398ZM175.041 208.376L177.248 228.233L192.986 241.324L227.258 217.937L175.041 208.376ZM251.528 288.834C255.941 292.218 264.178 299.278 265.796 307.956C267.414 299.278 275.504 292.218 279.916 288.834L265.796 277.656L251.528 288.834ZM320.072 305.456C320.219 307.368 320.513 310.015 320.513 313.104C320.513 318.252 319.778 324.283 316.542 328.99C323.749 323.989 334.634 324.724 340.076 325.46L338.017 307.515L320.072 305.456ZM356.697 365.615C353.461 370.028 346.254 378.118 337.723 379.736C346.254 381.354 353.461 389.591 356.697 394.004L368.023 379.736L356.697 365.615ZM340.076 434.159C334.634 434.895 323.749 435.63 316.542 430.776C319.778 435.336 320.513 441.367 320.513 446.515C320.513 449.604 320.219 452.251 320.072 454.164L338.017 452.104L340.076 434.159Z" fill="url(#paint0_linear_2364_9073)"/>
<defs>
<linearGradient id="paint0_linear_2364_9073" x1="131.135" y1="489.906" x2="131.135" y2="-0.197276" gradientUnits="userSpaceOnUse">
<stop stop-color="#1B1B1B"/>
<stop offset="1" stop-color="#2E3827"/>
</linearGradient>
</defs>
</svg>
