<svg xmlns="http://www.w3.org/2000/svg" viewBox="0 0 16 16" id="Facebook--Streamline-Font-Awesome" height="16" width="16">
  <desc>
    Facebook Streamline Icon: https://streamlinehq.com
  </desc>
<!--! Font Awesome Free 6.5.2 by @fontawesome - https://fontawesome.com License - https://fontawesome.com/license/free (Icons: CC BY 4.0, Fonts: SIL OFL 1.1, Code: MIT License) Copyright 2024 Fonticons, Inc.-->
  <path d="M15.84 8.02909375c0 -4.330375 -3.509625 -7.84 -7.84 -7.84S0.16 3.69871875 0.16 8.02909375c0 3.675 2.5326875 6.762 5.947375 7.6103125V10.42396875h-1.617v-2.394875h1.617v-1.0320625c0 -2.6674375 1.206625 -3.9046875 3.828125 -3.9046875 0.496125 0 1.353625 0.098 1.7058125 0.196v2.16825c-0.18375 -0.018375 -0.5053125 -0.030625 -0.9065 -0.030625 -1.28625 0 -1.782375 0.4869375 -1.782375 1.75175v0.851375h2.56025l-0.441 2.394875H8.949375v5.3869375c3.88325 -0.4685625 6.890625 -3.773 6.890625 -7.7818125Z" fill="#000000" stroke-width="0.0313"></path>
</svg>