<svg xmlns="http://www.w3.org/2000/svg" viewBox="0 0 16 16" id="Youtube--Streamline-Font-Awesome" height="16" width="16">
  <desc>
    Youtube Streamline Icon: https://streamlinehq.com
  </desc>
<!--! Font Awesome Free 6.5.2 by @fontawesome - https://fontawesome.com License - https://fontawesome.com/license/free (Icons: CC BY 4.0, Fonts: SIL OFL 1.1, Code: MIT License) Copyright 2024 Fonticons, Inc.-->
  <path d="M15.51235 4.212544444444444c-0.18033055555555555 -0.6790138888888889 -0.7116555555555555 -1.2137833333333332 -1.386275 -1.3952638888888889C12.903277777777776 2.4875055555555554 8 2.4875055555555554 8 2.4875055555555554s-4.903247222222221 0 -6.126075 0.329775c-0.6746194444444444 0.1815111111111111 -1.2059444444444445 0.7162499999999999 -1.386275 1.3952638888888889C0.15999999999999998 5.443294444444444 0.15999999999999998 8.011138888888889 0.15999999999999998 8.011138888888889s0 2.567847222222222 0.32765 3.7985972222222224c0.18033055555555555 0.6790111111111111 0.7116555555555555 1.1915027777777778 1.386275 1.3729833333333332C3.0967527777777772 13.512494444444442 8 13.512494444444442 8 13.512494444444442s4.903247222222221 0 6.126075 -0.329775c0.6746194444444444 -0.18148055555555553 1.2059444444444445 -0.6939694444444444 1.386275 -1.3729833333333332C15.84 10.57898611111111 15.84 8.011138888888889 15.84 8.011138888888889s0 -2.5678444444444444 -0.32765 -3.7985944444444444ZM6.3963527777777776 10.34255V5.679727777777778l4.098166666666666 2.3314694444444446 -4.098166666666666 2.3313527777777776Z" fill="#000000" stroke-width="0.0278"></path>
</svg>